<?xml version="1.0" encoding="UTF-8" standalone="no"?><!DOCTYPE svg PUBLIC "-//W3C//DTD SVG 1.1//EN" "http://www.w3.org/Graphics/SVG/1.1/DTD/svg11.dtd"><svg width="100%" height="100%" viewBox="0 0 494 568" version="1.1" xmlns="http://www.w3.org/2000/svg" xmlns:xlink="http://www.w3.org/1999/xlink" xml:space="preserve" xmlns:serif="http://www.serif.com/" style="fill-rule:evenodd;clip-rule:evenodd;stroke-linecap:round;stroke-linejoin:round;stroke-miterlimit:1.5;"><path d="M246.781,6.25l-240.531,138.871l0,277.741l240.531,138.871l240.531,-138.871l-0,-277.741l-240.531,-138.871" style="fill:#ddf0e4;stroke:#000;stroke-width:12.5px;"/><path d="M126.985,246.497l-59.081,49.575" style="fill:none;stroke:#40200d;stroke-width:20.83px;"/><path d="M182.989,121.033c57.333,-40.145 143.707,-15.86 143.707,-15.86c0,0 -6.721,89.471 -64.054,129.616c-57.333,40.145 -121.727,47.252 -143.707,15.86c-21.981,-31.392 6.721,-89.471 64.054,-129.616Z" style="fill:#66800c;"/><g transform="matrix(100,0,0,100,186.070291,415.56936)"></g><text x="69.371px" y="415.569px" style="font-family:'ArialMT', 'Arial', sans-serif;font-size:100px;">JP</text><g transform="matrix(100,0,0,100,425.674995,416.179712)"></g><text x="286.759px" y="416.18px" style="font-family:'ArialMT', 'Arial', sans-serif;font-size:100px;">Sci</text><path d="M246.22,361.639l18.75,18.75l-18.75,18.75" style="fill:none;stroke:#000;stroke-width:12.5px;stroke-linejoin:miter;stroke-miterlimit:10;"/><path d="M211.728,380.389l53.242,0" style="fill:none;stroke:#000;stroke-width:12.5px;"/><g><circle cx="270.307" cy="220.276" r="88.583" style="fill:none;stroke:#fff;stroke-width:20.83px;"/><circle cx="270.307" cy="220.276" r="75.795" style="fill:none;stroke:#3071b2;stroke-width:20.83px;"/><path d="M327.97,269.469l59.441,59.441" style="fill:none;stroke:#3071b2;stroke-width:20.83px;"/></g></svg>