<svg xmlns="http://www.w3.org/2000/svg" width="240" height="278" viewBox="0 0 240 278" role="img" aria-labelledby="title desc"><metadata><rdf:RDF xmlns:rdf="http://www.w3.org/1999/02/22-rdf-syntax-ns#" xmlns:dc="http://purl.org/dc/elements/1.1/"><rdf:Description><dc:creator>RealFaviconGenerator</dc:creator><dc:source>https://realfavicongenerator.net</dc:source></rdf:Description></rdf:RDF></metadata><title id="title">jpplantnames package logo</title><desc id="desc">A hex sticker logo with a plant leaf, checklist lines, and lookup mark for jpplantnames.</desc><defs>
    <linearGradient id="hex-fill" x1="24" x2="216" y1="34" y2="244" gradientUnits="userSpaceOnUse">
      <stop offset="0" stop-color="#f4fbf5"></stop>
      <stop offset="1" stop-color="#dbeee2"></stop>
    </linearGradient>
    <linearGradient id="leaf-fill" x1="76" x2="152" y1="60" y2="146" gradientUnits="userSpaceOnUse">
      <stop offset="0" stop-color="#75c96b"></stop>
      <stop offset="1" stop-color="#1f7a4c"></stop>
    </linearGradient>
    <filter id="soft-shadow" x="-20%" y="-20%" width="140%" height="140%">
      <feDropShadow dx="0" dy="3" stdDeviation="3" flood-color="#173f35" flood-opacity="0.18"></feDropShadow>
    </filter>
    <style>
      .label {
        fill: #143d33;
        font-family: &quot;Segoe UI&quot;, Arial, sans-serif;
        font-weight: 700;
        text-anchor: middle;
      }
    </style>
  </defs><polygon points="120,8 226,69.5 226,208.5 120,270 14,208.5 14,69.5" fill="url(#hex-fill)" stroke="#174d3d" stroke-width="6" stroke-linejoin="round"></polygon><g filter="url(#soft-shadow)">
    <rect x="58" y="72" width="124" height="88" rx="10" fill="#ffffff" stroke="#2d6d58" stroke-width="4"></rect>
    <line x1="83" y1="98" x2="157" y2="98" stroke="#8ab6a5" stroke-width="5" stroke-linecap="round"></line>
    <line x1="83" y1="120" x2="149" y2="120" stroke="#8ab6a5" stroke-width="5" stroke-linecap="round"></line>
    <line x1="83" y1="142" x2="132" y2="142" stroke="#8ab6a5" stroke-width="5" stroke-linecap="round"></line>
  </g><g>
    <path d="M118 47 C87 56 67 82 69 111 C98 111 124 91 132 61 C128 55 124 50 118 47 Z" fill="url(#leaf-fill)" stroke="#17543e" stroke-width="4" stroke-linejoin="round"></path>
    <path d="M76 104 C91 91 105 76 124 56" fill="none" stroke="#eef8ed" stroke-width="4" stroke-linecap="round"></path>
    <path d="M94 91 C96 82 101 75 109 69" fill="none" stroke="#eef8ed" stroke-width="3" stroke-linecap="round"></path>
  </g><g transform="rotate(-22 156 110)">
    <circle cx="156" cy="110" r="27" fill="none" stroke="#243c62" stroke-width="8"></circle>
    <line x1="176" y1="130" x2="199" y2="153" stroke="#243c62" stroke-width="10" stroke-linecap="round"></line>
    <circle cx="156" cy="110" r="13" fill="#ffffff" opacity="0.85"></circle>
  </g><text class="label" x="120" y="195" font-size="30">jpplant</text><text class="label" x="120" y="224" font-size="32">names</text></svg>